<svg width="16" height="16" viewBox="0 0 16 16" fill="none" xmlns="http://www.w3.org/2000/svg">
<path fill-rule="evenodd" clip-rule="evenodd" d="M3.99961 1.59998C4.21178 1.59998 4.41527 1.68426 4.56529 1.83429C4.71532 1.98432 4.79961 2.1878 4.79961 2.39998V3.19998H5.59961C5.81178 3.19998 6.01527 3.28426 6.16529 3.43429C6.31532 3.58432 6.39961 3.7878 6.39961 3.99998C6.39961 4.21215 6.31532 4.41563 6.16529 4.56566C6.01527 4.71569 5.81178 4.79998 5.59961 4.79998H4.79961V5.59998C4.79961 5.81215 4.71532 6.01563 4.56529 6.16566C4.41527 6.31569 4.21178 6.39998 3.99961 6.39998C3.78744 6.39998 3.58395 6.31569 3.43392 6.16566C3.2839 6.01563 3.19961 5.81215 3.19961 5.59998V4.79998H2.39961C2.18744 4.79998 1.98395 4.71569 1.83392 4.56566C1.68389 4.41563 1.59961 4.21215 1.59961 3.99998C1.59961 3.7878 1.68389 3.58432 1.83392 3.43429C1.98395 3.28426 2.18744 3.19998 2.39961 3.19998H3.19961V2.39998C3.19961 2.1878 3.2839 1.98432 3.43392 1.83429C3.58395 1.68426 3.78744 1.59998 3.99961 1.59998ZM3.99961 9.59998C4.21178 9.59998 4.41527 9.68426 4.56529 9.83429C4.71532 9.98432 4.79961 10.1878 4.79961 10.4V11.2H5.59961C5.81178 11.2 6.01527 11.2843 6.16529 11.4343C6.31532 11.5843 6.39961 11.7878 6.39961 12C6.39961 12.2121 6.31532 12.4156 6.16529 12.5657C6.01527 12.7157 5.81178 12.8 5.59961 12.8H4.79961V13.6C4.79961 13.8121 4.71532 14.0156 4.56529 14.1657C4.41527 14.3157 4.21178 14.4 3.99961 14.4C3.78744 14.4 3.58395 14.3157 3.43392 14.1657C3.2839 14.0156 3.19961 13.8121 3.19961 13.6V12.8H2.39961C2.18744 12.8 1.98395 12.7157 1.83392 12.5657C1.68389 12.4156 1.59961 12.2121 1.59961 12C1.59961 11.7878 1.68389 11.5843 1.83392 11.4343C1.98395 11.2843 2.18744 11.2 2.39961 11.2H3.19961V10.4C3.19961 10.1878 3.2839 9.98432 3.43392 9.83429C3.58395 9.68426 3.78744 9.59998 3.99961 9.59998ZM9.59961 1.59998C9.77616 1.59992 9.94777 1.65827 10.0877 1.76593C10.2276 1.87358 10.328 2.02451 10.3732 2.19518L11.3164 5.75997L13.9996 7.30718C14.1212 7.37739 14.2222 7.47838 14.2924 7.59999C14.3626 7.7216 14.3996 7.85955 14.3996 7.99998C14.3996 8.1404 14.3626 8.27835 14.2924 8.39996C14.2222 8.52157 14.1212 8.62256 13.9996 8.69278L11.3164 10.2408L10.3724 13.8048C10.3271 13.9753 10.2268 14.126 10.0869 14.2336C9.94709 14.3411 9.77562 14.3994 9.59921 14.3994C9.4228 14.3994 9.25133 14.3411 9.11149 14.2336C8.97166 14.126 8.87129 13.9753 8.82601 13.8048L7.88281 10.24L5.19961 8.69278C5.078 8.62256 4.97702 8.52157 4.90681 8.39996C4.83661 8.27835 4.79964 8.1404 4.79964 7.99998C4.79964 7.85955 4.83661 7.7216 4.90681 7.59999C4.97702 7.47838 5.078 7.37739 5.19961 7.30718L7.88281 5.75918L8.82681 2.19518C8.87197 2.02464 8.97224 1.87381 9.112 1.76617C9.25177 1.65852 9.4232 1.6001 9.59961 1.59998Z" fill="white"/>
</svg>
